<?xml version="1.0" encoding="utf-8"?>
<!-- Svg Vector Icons : http://www.onlinewebfonts.com/icon -->
<!DOCTYPE svg PUBLIC "-//W3C//DTD SVG 1.1//EN" "http://www.w3.org/Graphics/SVG/1.1/DTD/svg11.dtd">
<svg version="1.1" xmlns="http://www.w3.org/2000/svg" xmlns:xlink="http://www.w3.org/1999/xlink" x="0px" y="0px" viewBox="0 0 1000 1000" enable-background="new 0 0 1000 1000" xml:space="preserve">
<metadata> Svg Vector Icons : http://www.onlinewebfonts.com/icon </metadata>
<g><g transform="translate(0.000000,512.000000) scale(0.100000,-0.100000)"><path d="M4525.6,5007.3c-1153.8-118.8-2186.8-607.5-2997.5-1418.3C750,2810.9,286.1,1866.1,123.2,725.7c-15.3-103.5-24.9-350.7-23-613.3c0-358.4,7.7-490.6,42.2-709.1c86.2-542.4,224.2-979.4,465.7-1464.3c477.2-964,1238.1-1724.9,2204-2204c649.7-323.9,1286-484.9,2020.1-511.7c795.4-30.7,1558.2,130.3,2280.7,479.1c525.1,253,879.7,502.1,1291.8,902.7c446.6,435.1,718.7,808.8,988.9,1360.8c88.2,180.1,191.7,415.9,230,527.1c435.1,1266.8,354.6,2602.7-228.1,3785.2c-260.6,525.1-513.6,881.6-918,1291.8c-764.7,772.4-1692.3,1240-2792.5,1410.6C5443.6,5016.9,4770.9,5034.2,4525.6,5007.3z M6764.1,2272.4l396.7-396.7V-276.6V-2427H4995.1H2829.4V122v2549h1769h1767.1L6764.1,2272.4z"/><path d="M3231.9,122v-2165.7h1763.2h1763.2v1763.2v1763.2H6377c-379.5,0-381.4,0-392.9,44.1c-5.7,23-11.5,203.2-11.5,402.5v358.4H4602.2H3231.9V122z M5972.6,514.9V313.7h-977.4h-977.4v201.2v201.2h977.4h977.4V514.9z M5972.6-270.9v-201.2h-977.4h-977.4v201.2v201.2h977.4h977.4V-270.9z"/><path d="M6375,1990.7v-105.4h109.3h109.2L6490,1990.7c-57.5,57.5-107.3,105.4-109.2,105.4C6377,2096.1,6375,2048.1,6375,1990.7z"/></g></g>
</svg>